<svg xmlns="http://www.w3.org/2000/svg" width="939" height="1198" viewBox="0 0 939 1198" version="1.1">
	<path d="M 503.742 9.250 C 494.274 18.545, 485.568 29.851, 478.672 41.806 C 458.591 76.622, 446.047 132.863, 446.010 188.245 L 446 203.991 432.250 190.207 C 408.721 166.619, 383.806 152.339, 351.510 143.931 C 342.420 141.565, 323.969 138.020, 320.658 138.004 C 320.195 138.002, 325.310 143.738, 332.023 150.750 C 353.966 173.669, 367.234 194.149, 375.268 217.500 C 379.027 228.426, 382.508 241.825, 381.777 242.556 C 381.523 242.810, 378.432 241.711, 374.908 240.115 C 340.501 224.528, 282.187 220.536, 244 231.152 C 234.890 233.685, 221.267 239.505, 214.542 243.737 C 208.811 247.343, 208.384 247.093, 223.500 248.974 C 235.024 250.408, 260.304 255.471, 265.500 257.385 C 269.085 258.706, 261.408 258.866, 191.474 258.930 C 144.789 258.972, 110.174 259.410, 105.298 260.022 C 78.888 263.333, 56.884 273.742, 37.726 291.985 C 19.032 309.787, 7.966 329.474, 3.060 353.657 C 1.002 363.803, 1 364.212, 1 728.297 C 1 1128.610, 0.536 1098.376, 6.975 1117.427 C 20.794 1158.310, 57.259 1188.993, 100.332 1195.984 C 104.367 1196.639, 232.097 1196.988, 469.619 1196.992 C 868.864 1197.001, 840.008 1197.451, 858.621 1190.918 C 882.342 1182.592, 903.012 1167.078, 917.318 1146.862 C 923.807 1137.692, 931.376 1121.431, 934.707 1109.500 L 937.500 1099.500 937.500 728.500 L 937.500 357.500 935.323 349.350 C 924.716 309.632, 897.145 279.245, 859.841 266.158 C 840.316 259.309, 847.202 259.694, 732 258.997 C 636.729 258.420, 626.926 258.209, 621 256.610 C 616.453 255.382, 609.016 254.690, 596.250 254.305 C 586.212 254.003, 578 253.523, 578 253.239 C 578 252.955, 580.504 248.959, 583.565 244.359 C 603.286 214.720, 637.163 193.049, 674.672 186.078 C 680.628 184.971, 686.850 183.932, 688.500 183.769 C 691.096 183.512, 690.624 183.175, 685 181.264 C 657.591 171.953, 620.357 167.160, 590.666 169.122 C 564.713 170.837, 542.345 176.622, 521.500 187.011 C 506.753 194.360, 495.068 203.015, 483.549 215.119 C 475.990 223.063, 474.843 223.943, 475.330 221.425 C 475.641 219.816, 476.180 215.125, 476.528 211 C 478.328 189.675, 483.477 160.060, 488.539 141.924 C 496.299 114.120, 512.175 83.724, 529.348 63.791 C 535.387 56.780, 541.724 50.960, 550.971 43.929 L 554.352 41.358 553.128 33.948 C 550.262 16.593, 541.669 6.398, 526.500 2.356 C 523.750 1.623, 519.395 1.018, 516.823 1.012 C 512.304 1, 511.859 1.281, 503.742 9.250 M 461.564 345.759 C 460.661 352.249, 455.894 361.742, 451.306 366.187 C 442.223 374.987, 429.235 380.253, 396.493 388.412 C 358.384 397.907, 342.233 405.600, 327.212 421.414 C 320.333 428.656, 320.116 428.792, 319.627 426.185 C 318.356 419.396, 317.671 410.006, 317.108 391.670 L 316.500 371.840 296.500 381.875 C 255.818 402.288, 225.040 424.854, 192.492 458.133 C 183.688 467.135, 173.045 478.775, 168.841 484 C 98.332 571.641, 69.092 682.814, 87.582 792.952 C 96.948 848.741, 119.198 903.266, 151.471 949.511 C 170.870 977.311, 201.095 1009.669, 227 1030.372 C 329.471 1112.268, 464.532 1137.067, 588.966 1096.835 C 649.190 1077.363, 702.105 1044.411, 747.107 998.355 C 875.458 867.001, 893.397 662.464, 789.896 510.500 C 746.608 446.943, 684.286 396.838, 613.500 368.684 C 605.800 365.622, 598.342 362.836, 596.928 362.494 L 594.355 361.872 596.609 370.811 C 599.726 383.176, 601.131 397.059, 600.898 413.202 L 600.700 426.904 616.600 434.911 C 689.540 471.640, 745.245 532.571, 775.302 608.500 C 786.013 635.560, 791.911 659.608, 796.454 694.750 L 796.874 698 781.975 698 C 769.504 698, 766.200 698.327, 761.708 700.008 C 751.474 703.837, 745.431 711.153, 742.966 722.697 C 740.851 732.607, 746.113 745.341, 754.816 751.372 C 761.351 755.901, 766.803 757, 782.738 757 L 797.159 757 796.642 759.750 C 796.357 761.263, 795.849 765.200, 795.513 768.500 C 794.415 779.280, 791.001 797.243, 787.531 810.500 C 757.100 926.763, 666.403 1017.076, 550.500 1046.526 C 533.962 1050.728, 509.804 1055, 502.577 1055 L 499 1055 499 1040.038 C 499 1027.504, 498.674 1024.204, 496.992 1019.708 C 492.518 1007.750, 482.155 1000.532, 469.536 1000.585 C 457.602 1000.635, 448.461 1006.289, 443.290 1016.818 C 440.640 1022.214, 440.483 1023.323, 440.162 1038.880 L 439.824 1055.260 432.180 1054.567 C 407.983 1052.375, 375.943 1044.463, 350 1034.275 C 246.332 993.564, 169.240 901.672, 147.587 793 C 146.217 786.125, 144.613 776.450, 144.021 771.500 C 143.430 766.550, 142.752 761.301, 142.515 759.835 L 142.084 757.171 158.292 756.835 C 173.751 756.515, 174.768 756.368, 180.307 753.649 C 186.720 750.500, 192.935 743.634, 195.137 737.264 C 195.853 735.194, 196.428 730.535, 196.415 726.910 C 196.371 714.745, 189.013 704.394, 177.292 700.008 C 172.826 698.337, 169.496 698, 157.462 698 L 143 698 143 694.493 C 143 692.565, 143.691 686.388, 144.535 680.766 C 155.123 610.271, 186.967 546.918, 236.937 496.932 C 252.469 481.395, 262.695 472.657, 278.963 461.020 C 321.745 430.418, 375.427 409.030, 424.500 403.035 C 429.450 402.430, 434.962 401.705, 436.750 401.422 L 440 400.909 440 414.796 C 440 423.962, 440.487 430.299, 441.431 433.438 C 444.551 443.805, 452.242 450.905, 463.310 453.637 C 469.093 455.064, 470.214 455.061, 475.893 453.606 C 483.359 451.693, 490.137 447.261, 493.601 442.027 C 497.884 435.555, 499 429.921, 499 414.780 L 499 400.877 503.250 401.449 C 535.144 405.739, 550.473 409.118, 573.500 416.934 C 582.850 420.107, 592.207 423.460, 594.294 424.384 L 598.088 426.063 596.325 423.282 C 581.670 400.148, 557.527 379.735, 526.500 364.244 C 511.121 356.565, 493.914 349.783, 479.163 345.585 C 460.523 340.282, 462.329 340.264, 461.564 345.759 M 649.962 535.250 C 646.619 536.936, 623.605 560.442, 558.174 629 C 471.352 719.971, 470.823 720.501, 466.674 720.748 C 462.588 720.990, 460.959 719.830, 389.243 665.573 C 348.951 635.090, 314.366 609.616, 312.387 608.963 C 306.429 606.996, 297.665 608.160, 292.745 611.570 C 287.746 615.035, 283 623.524, 283 629.001 C 283 634.426, 285.700 641.336, 289.097 644.606 C 290.750 646.198, 324.542 672.025, 364.189 702 L 436.274 756.500 437.665 762 C 443.866 786.524, 474.948 795.052, 492.856 777.144 C 498.257 771.743, 500.749 766.588, 502.253 757.705 L 503.500 750.344 590.485 659.158 C 638.327 609.006, 678.204 566.516, 679.101 564.736 C 681.788 559.404, 682.256 554.392, 680.599 548.692 C 676.876 535.885, 661.811 529.275, 649.962 535.250" stroke="none" fill="black" fill-rule="evenodd"/>
</svg>